<svg xmlns="http://www.w3.org/2000/svg" xmlns:xlink="http://www.w3.org/1999/xlink" width="500" height="453" viewBox="0 0 500 453"><defs><clipPath id="a"><rect width="92" height="16" fill="none"/></clipPath></defs><rect width="500" height="453" rx="45" fill="rgba(117,104,75,0.45)"/><text transform="translate(157 264)" fill="#0c1318" font-size="40" font-family="SegoeUI, Segoe UI"><tspan x="55.367" y="43">CSS</tspan></text><g transform="translate(156.608 212.212)"><path d="M52,37.361s-16.809,3.388-21.55-5.437,1.094-21.988-6.52-29.017S0,3.808,0,3.808" transform="translate(51.612 44.054) rotate(-173)" fill="none" stroke="#0c1318" stroke-width="8"/></g><g transform="translate(286.944 211.212)"><path d="M52,.639S35.191-2.749,30.45,6.077s1.094,21.988-6.52,29.017S0,34.192,0,34.192" transform="translate(0 6.337) rotate(-7)" fill="none" stroke="#0c1318" stroke-width="8"/></g><g transform="translate(212.851 214.266) rotate(180)"><path d="M52,.639S35.191-2.749,30.45,6.077s1.094,21.988-6.52,29.017S0,34.192,0,34.192" transform="translate(0 6.337) rotate(-7)" fill="none" stroke="#0c1318" stroke-width="8"/></g><g transform="translate(343.187 213.266) rotate(180)"><path d="M52,37.361s-16.809,3.388-21.55-5.438,1.094-21.988-6.52-29.017S0,3.808,0,3.808" transform="translate(51.612 44.054) rotate(-173)" fill="none" stroke="#0c1318" stroke-width="8"/></g><g transform="translate(200 208)" clip-path="url(#a)"><g transform="translate(-690 -426)"><path d="M8,0A8,8,0,1,1,0,8,8,8,0,0,1,8,0Z" transform="translate(690 426)" fill="#0c1318"/></g><g transform="translate(-654 -426)"><path d="M8,0A8,8,0,1,1,0,8,8,8,0,0,1,8,0Z" transform="translate(690 426)" fill="#0c1318"/></g><g transform="translate(-618 -426)"><path d="M8,0A8,8,0,1,1,0,8,8,8,0,0,1,8,0Z" transform="translate(690 426)" fill="#0c1318"/></g></g></svg>