<svg xmlns="http://www.w3.org/2000/svg" width="500" height="453" viewBox="0 0 500 453"><rect width="500" height="453" rx="45" fill="rgba(117,104,75,0.45)"/><text transform="translate(157 249)" fill="#0c1318" font-size="40" font-family="SegoeUI, Segoe UI"><tspan x="71.236" y="43">JS</tspan></text><g transform="translate(156.608 202.212)"><path d="M52,37.361s-16.809,3.388-21.55-5.437,1.094-21.988-6.52-29.017S0,3.808,0,3.808" transform="translate(51.612 44.054) rotate(-173)" fill="none" stroke="#0c1318" stroke-width="8"/></g><g transform="translate(212.851 204.266) rotate(180)"><path d="M52,.639S35.191-2.749,30.45,6.077s1.094,21.988-6.52,29.017S0,34.192,0,34.192" transform="translate(0 6.337) rotate(-7)" fill="none" stroke="#0c1318" stroke-width="8"/></g><g transform="translate(343.187 203.266) rotate(180)"><path d="M52,37.361s-16.809,3.388-21.55-5.438,1.094-21.988-6.52-29.017S0,3.808,0,3.808" transform="translate(51.612 44.054) rotate(-173)" fill="none" stroke="#0c1318" stroke-width="8"/></g><g transform="translate(343.187 246.266) rotate(180)"><path d="M52,.639S35.191-2.749,30.45,6.077s1.094,21.988-6.52,29.017S0,34.192,0,34.192" transform="translate(56.243 37.717) rotate(173)" fill="none" stroke="#0c1318" stroke-width="8"/></g><g transform="translate(237 191)" clip-path="url(#a)"><g transform="translate(-690 -426)"><path d="M8,0A8,8,0,1,1,0,8,8,8,0,0,1,8,0Z" transform="translate(690 426)" fill="#0c1318"/></g></g><path d="M5.073,19.571C5.218,8.127,6.662,7.826,2.616,6.923S-.912-2.112,5.073-2.112A11.072,11.072,0,0,1,15.911,9.181C15.911,15.418,4.928,31.015,5.073,19.571Z" transform="translate(238.089 217.612)" fill="#0c1318"/></svg>